HIERARCHY
ROOT Hips
{
	OFFSET 0.00000 0.00000 0.00000
	CHANNELS 6 Xposition Yposition Zposition Zrotation Yrotation Xrotation 
	JOINT LHipJoint
	{
		OFFSET 0 0 0
		CHANNELS 3 Zrotation Yrotation Xrotation
		JOINT LeftUpLeg
		{
			OFFSET 1.58161 -1.81893 0.78828
			CHANNELS 3 Zrotation Yrotation Xrotation
			JOINT LeftLeg
			{
				OFFSET 2.53374 -6.96141 0.00000
				CHANNELS 3 Zrotation Yrotation Xrotation
				JOINT LeftFoot
				{
					OFFSET 2.63509 -7.23986 0.00000
					CHANNELS 3 Zrotation Yrotation Xrotation
					JOINT LeftToeBase
					{
						OFFSET 0.14115 -0.38781 2.05350
						CHANNELS 3 Zrotation Yrotation Xrotation
						End Site
						{
							OFFSET 0.00000 -0.00000 1.05543
						}
					}
				}
			}
		}
	}
	JOINT RHipJoint
	{
		OFFSET 0 0 0
		CHANNELS 3 Zrotation Yrotation Xrotation
		JOINT RightUpLeg
		{
			OFFSET -1.11138 -1.81893 0.78828
			CHANNELS 3 Zrotation Yrotation Xrotation
			JOINT RightLeg
			{
				OFFSET -2.58392 -7.09926 0.00000
				CHANNELS 3 Zrotation Yrotation Xrotation
				JOINT RightFoot
				{
					OFFSET -2.66423 -7.31992 0.00000
					CHANNELS 3 Zrotation Yrotation Xrotation
					JOINT RightToeBase
					{
						OFFSET -0.18831 -0.51739 2.12114
						CHANNELS 3 Zrotation Yrotation Xrotation
						End Site
						{
							OFFSET -0.00000 -0.00000 1.09845
						}
					}
				}
			}
		}
	}
	JOINT LowerBack
	{
		OFFSET 0 0 0
		CHANNELS 3 Zrotation Yrotation Xrotation
		JOINT Spine
		{
			OFFSET -0.01511 1.97958 -0.08829
			CHANNELS 3 Zrotation Yrotation Xrotation
			JOINT Spine1
			{
				OFFSET 0.08344 1.97334 -0.04330
				CHANNELS 3 Zrotation Yrotation Xrotation
				JOINT Neck
				{
					OFFSET 0 0 0
					CHANNELS 3 Zrotation Yrotation Xrotation
					JOINT Neck1
					{
						OFFSET 0.00559 1.76246 0.31246
						CHANNELS 3 Zrotation Yrotation Xrotation
						JOINT Head
						{
							OFFSET -0.07011 1.80354 -0.30524
							CHANNELS 3 Zrotation Yrotation Xrotation
							End Site
							{
								OFFSET -0.02385 1.83547 -0.13906
							}
						}
					}
				}
				JOINT LeftShoulder
				{
					OFFSET 0 0 0
					CHANNELS 3 Zrotation Yrotation Xrotation
					JOINT LeftArm
					{
						OFFSET 3.20667 1.30156 -0.60240
						CHANNELS 3 Zrotation Yrotation Xrotation
						JOINT LeftForeArm
						{
							OFFSET 4.95663 -0.00000 0.00000
							CHANNELS 3 Zrotation Yrotation Xrotation
							JOINT LeftHand
							{
								OFFSET 3.38177 -0.00000 0.00000
								CHANNELS 3 Zrotation Yrotation Xrotation
								JOINT LeftFingerBase
								{
									OFFSET 0 0 0
									CHANNELS 3 Zrotation Yrotation Xrotation
									JOINT LeftHandIndex1
									{
										OFFSET 0.66291 -0.00000 0.00000
										CHANNELS 3 Zrotation Yrotation Xrotation
										End Site
										{
											OFFSET 0.53445 -0.00000 0.00000
										}
									}
								}
								JOINT LThumb
								{
									OFFSET 0 0 0
									CHANNELS 3 Zrotation Yrotation Xrotation
									End Site
									{
										OFFSET 0.54261 -0.00000 0.54261
									}
								}
							}
						}
					}
				}
				JOINT RightShoulder
				{
					OFFSET 0 0 0
					CHANNELS 3 Zrotation Yrotation Xrotation
					JOINT RightArm
					{
						OFFSET -3.06877 1.34672 -0.60964
						CHANNELS 3 Zrotation Yrotation Xrotation
						JOINT RightForeArm
						{
							OFFSET -5.08365 -0.00000 0.00000
							CHANNELS 3 Zrotation Yrotation Xrotation
							JOINT RightHand
							{
								OFFSET -3.35984 -0.00000 0.00000
								CHANNELS 3 Zrotation Yrotation Xrotation
								JOINT RightFingerBase
								{
									OFFSET 0 0 0
									CHANNELS 3 Zrotation Yrotation Xrotation
									JOINT RightHandIndex1
									{
										OFFSET -0.82076 -0.00000 0.00000
										CHANNELS 3 Zrotation Yrotation Xrotation
										End Site
										{
											OFFSET -0.66172 -0.00000 0.00000
										}
									}
								}
								JOINT RThumb
								{
									OFFSET 0 0 0
									CHANNELS 3 Zrotation Yrotation Xrotation
									End Site
									{
										OFFSET -0.67182 -0.00000 0.67182
									}
								}
							}
						}
					}
				}
			}
		}
	}
}
MOTION
Frames: 11
Frame Time: .0083333
0.1244 18.1708 -6.8138 0 0 0 0 0 0 -21 0 0 0 0 0 0 0 0 0 0 0 0 0 0 21 0 0 0 0 0 0 0 0 0 0 0 0 0 0 0 0 0 0 0 0 0 0 -16 0 0 21 0 0 11 0 0 0 -8 0 0 0 0 0 0 0 0 0 0 0 0 0 0 0 0 0 0 0 0 8 0 0 0 0 0 0 0 0 0 0 0 0 0 0 0 0 0
0.1244 18.1708 -6.8138 -7.7266 -5.8783 11.3329 0.0000 0.0000 0.0000 -12.5255 -1.7329 -10.7040 1.3489 7.3528 20.7648 0.7308 2.6413 -17.3155 0.2226 -3.0370 -8.3817 0.0000 0.0000 0.0000 26.2002 6.7304 -11.3483 -1.3071 -7.2423 20.4353 -0.3325 -3.4820 -12.7397 -0.0793 1.8171 -5.0004 -1.0503 -0.4626 -9.0487 4.1916 -0.6816 -1.6345 4.8838 -0.3726 3.4413 -6.5124 -9.7319 -16.7609 -0.7094 -11.7461 24.2675 -0.8986 -6.0516 10.9560 0.0000 0.0000 0.0000 -89.2881 -0.1301 19.5450 13.2471 -21.6482 -2.5437 -0.0000 0.0000 -4.6438 16.1035 35.5751 9.5343 -7.1250 0.0000 -0.0000 -22.4873 65.3138 -11.2999 0.0000 0.0000 0.0000 85.9719 -1.0134 20.9964 -14.9776 24.1149 -3.2168 0.0000 -0.0000 -8.8426 -14.6111 6.9257 -1.8004 7.1250 -0.0000 -0.0000 8.9097 -22.8475 4.8078
0.1239 18.1724 -6.8113 -7.5658 -5.8838 11.3028 0.0000 0.0000 0.0000 -12.7170 -1.6656 -10.7318 1.3546 7.3674 20.8086 0.7369 2.5951 -17.3579 0.2356 -3.1236 -8.6231 0.0000 0.0000 0.0000 26.0331 6.7121 -11.3090 -1.3019 -7.2285 20.3941 -0.3308 -3.5636 -12.7705 -0.2078 2.9350 -8.0979 -1.4160 -0.5276 -8.9919 4.1927 -0.7134 -2.3512 5.0872 -0.3689 2.6711 -6.4301 -9.5489 -14.4484 -1.0333 -11.6075 24.0605 -0.8676 -6.0560 10.4097 -0.0000 -0.0000 0.0000 -89.2027 1.8218 19.3318 13.4692 -21.9708 -2.6262 -0.0000 0.0000 -3.6525 14.5459 34.6378 8.3895 -7.1250 0.0000 -0.0000 -23.2227 64.0399 -11.0031 -0.0000 -0.0000 0.0000 85.9720 -2.7044 21.4360 -15.1293 24.3259 -3.2790 0.0000 -0.0000 -8.9028 -14.7398 7.7881 -2.0418 7.1250 -0.0000 -0.0000 8.7808 -21.9627 4.9161
0.1227 18.1715 -6.8128 -7.6114 -5.8148 11.3554 0.0000 0.0000 0.0000 -12.6603 -1.5654 -10.9391 1.3732 7.4159 20.9535 0.7448 2.4857 -17.3861 0.2491 -3.2117 -8.8688 0.0000 0.0000 0.0000 25.9886 7.1687 -11.0203 -1.2891 -7.1942 20.2920 -0.3749 -3.3607 -13.2960 -0.1250 2.2788 -6.2769 -1.2403 -0.5192 -9.0789 4.1979 -0.7338 -1.8360 4.9920 -0.3949 3.2555 -6.2897 -9.6481 -16.5538 -1.1214 -11.6067 24.6078 -1.0551 -6.0228 10.9957 -0.0000 0.0000 0.0000 -89.2275 0.5775 19.1702 13.3433 -21.7882 -2.5793 -0.0000 0.0000 -3.5001 14.3822 34.1320 8.1875 -7.1250 0.0000 -0.0000 -22.8887 63.5395 -10.5694 -0.0000 0.0000 0.0000 85.9623 -1.5353 21.4184 -15.0890 24.2699 -3.2624 0.0000 -0.0000 -8.8068 -14.7769 7.9869 -2.0990 7.1250 -0.0000 -0.0000 8.7467 -21.7584 4.9377
0.1214 18.1721 -6.8139 -7.6371 -5.7902 11.3836 0.0000 0.0000 0.0000 -12.6240 -1.4742 -11.0761 1.3863 7.4498 21.0551 0.7514 2.3826 -17.4045 0.2500 -3.2171 -8.8838 0.0000 0.0000 0.0000 26.0056 7.2835 -10.9280 -1.2798 -7.1693 20.2181 -0.3969 -3.3831 -13.6282 -0.2565 3.2586 -8.9994 -1.1760 -0.5107 -9.1198 4.2074 -0.7346 -1.6538 4.9662 -0.4006 3.4674 -6.2815 -9.7034 -17.3060 -1.1040 -11.6371 24.8070 -1.1042 -6.0218 11.2156 -0.0000 0.0000 0.0000 -89.2583 0.0305 19.0457 13.2894 -21.7098 -2.5594 -0.0000 0.0000 -3.2329 14.0572 34.0442 7.9795 -7.1250 0.0000 -0.0000 -23.1564 63.3744 -10.6104 -0.0000 0.0000 0.0000 85.9289 -1.1846 21.5826 -15.1469 24.3503 -3.2863 0.0000 -0.0000 -8.9602 -14.8890 7.7216 -2.0459 7.1250 -0.0000 -0.0000 8.6752 -22.0246 4.8433
0.1213 18.1750 -6.8132 -7.6087 -5.8003 11.3701 0.0000 0.0000 0.0000 -12.6528 -1.4513 -11.1366 1.4031 7.4930 21.1844 0.7618 2.3313 -17.4904 0.2476 -3.2017 -8.8408 0.0000 0.0000 0.0000 26.0417 7.0132 -10.9947 -1.2673 -7.1355 20.1174 -0.3659 -3.5164 -13.2685 -0.2671 3.3248 -9.1843 -1.2619 -0.5333 -9.1058 4.2306 -0.7523 -1.8271 5.0369 -0.4050 3.2822 -6.3280 -9.6707 -16.7084 -1.1343 -11.6160 24.7332 -1.0688 -6.0295 11.0744 -0.0000 0.0000 0.0000 -89.3016 0.4248 19.1034 13.3614 -21.8145 -2.5860 -0.0000 0.0000 -3.2882 13.8308 34.1305 7.8647 -7.1250 0.0000 -0.0000 -23.4887 63.3926 -10.7813 -0.0000 0.0000 0.0000 85.8946 -1.6050 21.6919 -15.1806 24.3971 -3.3002 0.0000 -0.0000 -9.0515 -14.8191 7.4583 -1.9669 7.1250 -0.0000 -0.0000 8.7359 -22.2962 4.8232
0.1215 18.1780 -6.8136 -7.6381 -5.7669 11.3717 0.0000 0.0000 0.0000 -12.6170 -1.4394 -11.2063 1.4164 7.5268 21.2859 0.7704 2.2805 -17.5567 0.2446 -3.1826 -8.7874 0.0000 0.0000 0.0000 26.1065 6.9048 -11.0083 -1.2579 -7.1099 20.0414 -0.3410 -3.6817 -13.0097 -0.3811 3.9646 -10.9770 -1.4128 -0.6327 -9.0085 4.3312 -0.8576 -2.3957 5.2156 -0.4403 2.6504 -6.4988 -9.5035 -14.7643 -1.1445 -11.4812 24.3969 -0.9073 -6.0135 10.5875 -0.0000 -0.0000 0.0000 -89.3746 1.8385 19.2163 13.5805 -22.1318 -2.6680 -0.0000 0.0000 -3.5301 13.6413 34.6887 7.8638 -7.1250 0.0000 -0.0000 -24.2658 63.8431 -11.4144 -0.0000 -0.0000 0.0000 85.8324 -2.8485 21.9353 -15.2280 24.4628 -3.3198 0.0000 -0.0000 -8.8471 -14.7517 7.0638 -1.8546 7.1250 -0.0000 -0.0000 8.8012 -22.7015 4.7776
0.1225 18.1803 -6.8130 -7.6578 -5.7629 11.3783 0.0000 0.0000 0.0000 -12.6104 -1.3915 -11.2652 1.4248 7.5481 21.3497 0.7774 2.2479 -17.6145 0.2390 -3.1461 -8.6857 0.0000 0.0000 0.0000 26.1141 6.9180 -10.9428 -1.2450 -7.0748 19.9371 -0.3306 -3.6929 -12.8594 -0.4042 4.0818 -11.3068 -1.2989 -0.5746 -9.0178 4.2632 -0.7918 -2.2688 5.0861 -0.4106 2.7786 -6.2951 -9.5573 -15.2737 -1.1918 -11.5603 24.5214 -0.9979 -6.0301 10.7140 0.0000 0.0000 0.0000 -89.2238 1.5847 19.5842 13.6362 -22.2122 -2.6890 -0.0000 0.0000 -3.8621 14.7750 33.2749 8.2339 -7.1250 0.0000 -0.0000 -21.6326 62.8613 -9.6171 0.0000 0.0000 0.0000 85.9467 -2.5668 21.7705 -15.1974 24.4204 -3.3071 0.0000 -0.0000 -8.8686 -14.6379 7.0441 -1.8346 7.1250 -0.0000 -0.0000 8.8849 -22.7258 4.8192
0.1245 18.1822 -6.8102 -7.6452 -5.8534 11.3696 0.0000 0.0000 0.0000 -12.6677 -1.3455 -11.2790 1.4361 7.5767 21.4357 0.7845 2.3065 -17.7187 0.2315 -3.0967 -8.5481 0.0000 0.0000 0.0000 26.0775 6.8896 -10.8615 -1.2307 -7.0355 19.8206 -0.3381 -3.5558 -12.8767 -0.3969 4.0451 -11.2036 -1.2770 -0.5421 -9.0581 4.2458 -0.7510 -2.2433 5.0600 -0.3911 2.8229 -6.2296 -9.5754 -15.2886 -1.2607 -11.5839 24.5289 -1.0360 -6.0432 10.7107 -0.0000 0.0000 0.0000 -89.2210 1.4169 19.8107 13.6064 -22.1692 -2.6778 -0.0000 0.0000 -4.2898 15.0068 33.3341 8.3801 -7.1250 0.0000 -0.0000 -21.4345 62.9756 -9.5823 -0.0000 0.0000 0.0000 85.9236 -2.5846 21.8589 -15.1773 24.3925 -3.2988 0.0000 -0.0000 -8.9655 -14.8116 7.2491 -1.9110 7.1250 -0.0000 -0.0000 8.7498 -22.5101 4.7878
0.1257 18.1888 -6.8079 -7.6743 -5.9200 11.3843 0.0000 0.0000 0.0000 -12.6646 -1.3226 -11.3222 1.4475 7.6054 21.5217 0.8029 2.2326 -17.8747 0.1733 -2.6817 -7.3938 0.0000 0.0000 0.0000 26.1207 6.8118 -10.8327 -1.2155 -6.9935 19.6961 -0.3372 -3.5005 -12.8244 -0.3543 3.8242 -10.5827 -1.2312 -0.5278 -9.0557 4.2493 -0.7349 -2.2917 5.0391 -0.3814 2.7692 -6.2010 -9.5791 -15.1510 -1.3308 -11.5890 24.5274 -1.0575 -6.0536 10.6773 -0.0000 -0.0000 0.0000 -89.2452 1.2869 19.8285 13.5007 -22.0164 -2.6380 -0.0000 0.0000 -4.4063 14.8611 33.6014 8.3542 -7.1250 0.0000 -0.0000 -21.8465 63.1826 -9.8817 -0.0000 -0.0000 0.0000 85.9231 -2.7151 21.8590 -15.1697 24.3819 -3.2957 0.0000 -0.0000 -8.9588 -14.9710 7.3207 -1.9515 7.1250 -0.0000 -0.0000 8.6309 -22.4309 4.7371
0.1260 18.1920 -6.8088 -7.6947 -5.9008 11.4108 0.0000 0.0000 0.0000 -12.6433 -1.2371 -11.4552 1.4597 7.6359 21.6136 0.7966 2.1896 -17.7881 0.2003 -2.8819 -7.9502 0.0000 0.0000 0.0000 26.1956 6.6332 -10.8793 -1.1998 -6.9498 19.5666 -0.3164 -3.6161 -12.5830 -0.3798 3.9579 -10.9582 -1.2070 -0.5479 -9.0207 4.2684 -0.7639 -2.3053 5.0420 -0.3951 2.7384 -6.1755 -9.5782 -15.2240 -1.3850 -11.5751 24.5592 -1.0833 -6.0506 10.6972 -0.0000 0.0000 0.0000 -89.2714 1.2296 19.7900 13.4762 -21.9810 -2.6289 -0.0000 0.0000 -4.3549 14.7534 33.4047 8.2494 -7.1250 0.0000 -0.0000 -21.7778 62.9745 -9.7428 -0.0000 0.0000 0.0000 85.9128 -2.7516 21.8424 -15.2257 24.4596 -3.3188 0.0000 -0.0000 -8.8902 -14.9413 7.0960 -1.8881 7.1250 -0.0000 -0.0000 8.6615 -22.6617 4.7081
